<svg width="1200" height="820" viewBox="0 0 1200 820" fill="none" xmlns="http://www.w3.org/2000/svg">
  <defs>
    <linearGradient id="bg" x1="120" y1="60" x2="1060" y2="760" gradientUnits="userSpaceOnUse">
      <stop stop-color="#0EA5E9"/>
      <stop offset="1" stop-color="#10B981"/>
    </linearGradient>
    <linearGradient id="card" x1="268" y1="180" x2="958" y2="620" gradientUnits="userSpaceOnUse">
      <stop stop-color="#FFFFFF" stop-opacity="0.95"/>
      <stop offset="1" stop-color="#EAF6FF" stop-opacity="0.95"/>
    </linearGradient>
  </defs>

  <rect x="20" y="20" width="1160" height="780" rx="36" fill="url(#bg)"/>
  <circle cx="215" cy="220" r="130" fill="#FFFFFF" fill-opacity="0.15"/>
  <circle cx="980" cy="640" r="170" fill="#FFFFFF" fill-opacity="0.12"/>

  <rect x="210" y="145" width="780" height="530" rx="28" fill="url(#card)"/>

  <rect x="280" y="214" width="245" height="204" rx="18" fill="#ECFEFF"/>
  <rect x="548" y="214" width="365" height="26" rx="13" fill="#D7F2FF"/>
  <rect x="548" y="256" width="323" height="22" rx="11" fill="#E7F7FF"/>
  <rect x="548" y="292" width="286" height="22" rx="11" fill="#E7F7FF"/>

  <rect x="280" y="447" width="633" height="160" rx="20" fill="#F0FDFA"/>
  <rect x="312" y="480" width="165" height="18" rx="9" fill="#BFEDE6"/>
  <rect x="312" y="510" width="563" height="16" rx="8" fill="#D8F6F0"/>
  <rect x="312" y="537" width="528" height="16" rx="8" fill="#D8F6F0"/>
  <rect x="312" y="564" width="491" height="16" rx="8" fill="#D8F6F0"/>

  <circle cx="351" cy="295" r="58" fill="#0EA5E9" fill-opacity="0.2"/>
  <path d="M350.5 260C332.6 260 318 274.6 318 292.5C318 310.4 332.6 325 350.5 325C368.4 325 383 310.4 383 292.5C383 274.6 368.4 260 350.5 260ZM349.5 309.7L334.3 294.5L341.5 287.3L349.4 295.2L360.4 284.2L367.6 291.4L349.5 309.7Z" fill="#0284C7"/>

  <circle cx="420" cy="338" r="45" fill="#10B981" fill-opacity="0.24"/>
  <path d="M420 313C403.4 313 390 326.4 390 343C390 359.6 403.4 373 420 373C436.6 373 450 359.6 450 343C450 326.4 436.6 313 420 313ZM431.6 350.3C430.6 352.2 428.8 353.3 426.8 353.3H413.2C410.2 353.3 407.8 350.9 407.8 347.9V333.3H416.8V344.3H426.8L431.6 350.3Z" fill="#047857"/>

  <text x="560" y="380" fill="#0F172A" font-family="Arial, sans-serif" font-size="34" font-weight="700">FoodBridge</text>
  <text x="560" y="420" fill="#334155" font-family="Arial, sans-serif" font-size="24" font-weight="500">Restaurants + NGOs + Admins</text>
</svg>
